<?xml version="1.0" encoding="utf-8"?>
<!-- Generator: Adobe Illustrator 22.0.1, SVG Export Plug-In . SVG Version: 6.00 Build 0)  -->
<svg version="1.1" id="OBJECTS" xmlns="http://www.w3.org/2000/svg" xmlns:xlink="http://www.w3.org/1999/xlink" x="0px" y="0px"
	 viewBox="0 0 718.5 186.1" style="enable-background:new 0 0 718.5 186.1;" xml:space="preserve">
<style type="text/css">
	.st0{fill:#222222;}
	.st1{display:none;}
	.st2{display:inline;fill:#222222;}
	.st3{display:inline;fill:#222222;}
	.st4{fill:#dd3d53;}
</style>
<path class="st0" d="M22.3,71.6c3-7.3-22-27.5-20.8-32.2s60.1,8.8,91.6,6.2C124.6,43,204.9,11.4,299.5,1.5
	c81-8.4,216,40.6,254.3,54.9c9.5,0.5,18.7,1.2,27.7,2.3c124.3,14.4,136.2,55.5,136.2,55.5c-47-34.8-81.5-39.5-153.5-45.2
	S417,71.4,348.4,77.8c-80,7.5-138.6-24.5-138.6-24.5s63.6,26.6,127.9,19.3c40.5-4.6,89.3-9.4,170.2-16.9
	c-31.3-10.6-107-36.9-163.8-42.3C272.4,6.6,212.2,32.1,97.9,62.7S23,129.2,24.1,131.3S2.8,108.5,7.5,94S19.5,79,22.3,71.6z"/>
<g class="st1">
	<path class="st2" d="M106.3,155.9l0.2,0.4c-3.3,9.5-8.9,16.7-16.7,21.8c-7.8,5.1-18.2,7.6-31.3,7.6c-12.7,0-22.9-3.4-30.6-10.2
		c-7.7-6.8-10.2-15.2-7.3-25.3l4.7-16.9c3.1-11.2,9.1-19.8,17.9-25.9s19.8-9.2,32.9-9.2c12.9,0,22.9,2.8,30.1,8.3
		c7.1,5.5,9.9,12.9,8.2,22.1l-0.2,0.3H91.1c1.1-5.6,0.3-10-2.5-13c-2.7-3-7.7-4.5-14.8-4.5c-5.8,0-11,2-15.6,6.1s-7.7,9.3-9.4,15.7
		l-4.8,17c-2,6.8-1.5,12.3,1.4,16.3s7.8,6,14.7,6c6.1,0,11-1.3,14.7-4s6.6-6.9,8.7-12.5L106.3,155.9L106.3,155.9z"/>
	<path class="st2" d="M153.8,184.4c-0.3-1.2-0.6-2.4-0.7-3.6s-0.2-2.5-0.2-3.8c-3.2,2.6-6.8,4.7-10.9,6.2c-4,1.6-8.4,2.4-13,2.4
		c-7.5,0-13.3-1.8-17.4-5.3c-4.1-3.5-5.3-8.1-3.7-13.8c1.9-6.6,6.2-11.5,13.2-14.7c6.9-3.2,16.5-4.8,28.7-4.8h10.6l1.4-5
		c0.9-3.2,0.6-5.6-0.8-7.2c-1.4-1.6-4-2.4-7.8-2.4c-3.2,0-5.9,0.7-8.2,2c-2.3,1.4-3.7,3.2-4.3,5.5l-22.6-0.1l-0.2-0.4
		c1.3-5.7,5.7-10.4,13.1-14.1c7.4-3.7,16.5-5.5,27.2-5.5c9.3,0,16.7,1.9,22.1,5.8c5.4,3.9,7.2,9.3,5.3,16.3l-7.4,26.1
		c-0.9,3.2-1.4,6-1.5,8.5s0.2,5,0.8,7.6h-23.7V184.4z M138.9,173c2.8,0,5.7-0.5,8.5-1.6c2.9-1.1,5.2-2.4,7.2-4l3-10.7H147
		c-4,0-7.5,0.9-10.3,2.7c-2.8,1.8-4.6,4-5.2,6.5c-0.7,2.3-0.3,4,1,5.2C133.8,172.5,135.9,173,138.9,173z"/>
	<path class="st2" d="M242,136.3l-9.4-0.2c-2.9,0-5.5,0.5-7.7,1.5c-2.3,1-4.2,2.4-5.8,4.2l-11.9,42.6h-23.5l17.7-63.2h21.9l-1.3,8.1
		l0.4,0.2c2.5-3,5.4-5.3,8.7-7c3.4-1.7,7-2.5,10.9-2.5c1.1,0,2.3,0.1,3.6,0.2c1.3,0.1,2.4,0.3,3.2,0.5L242,136.3z"/>
	<path class="st3" d="M263.8,171.3h48.7l-3.7,13.1h-72.3l23.8-85h23.5L263.8,171.3z"/>
	<path class="st3" d="M351.5,185.6c-11.6,0-20.4-2.9-26.5-8.8c-6-5.9-8-13.3-6-22.2l0.5-2.3c2.2-9.8,7.3-17.6,15.2-23.5
		c8-5.9,17.7-8.8,29.2-8.8c10.8,0,18.9,2.6,24,7.8c5.2,5.2,6.8,12.1,4.9,20.8l-2,9.3h-48.9c-0.4,4.5,0.6,8,3,10.6
		c2.5,2.6,6.4,4,11.9,4c4.6,0,8.6-0.4,12.2-1.2c3.5-0.8,7.4-2,11.5-3.6l4,10.5c-3.8,2.1-8.5,3.8-14.3,5.2
		C364.4,185,358.1,185.6,351.5,185.6z M361,133.1c-3.7,0-6.9,1.2-9.7,3.7c-2.8,2.4-4.8,5.6-6.2,9.5l0.2,0.3h25l0.3-1.5
		c0.8-3.8,0.5-6.7-1-8.8C368.1,134.3,365.3,133.1,361,133.1z"/>
	<path class="st3" d="M438.1,184.4c-0.3-1.2-0.6-2.4-0.7-3.6c-0.2-1.2-0.2-2.5-0.2-3.8c-3.2,2.6-6.8,4.7-10.9,6.2
		c-4,1.6-8.4,2.4-13,2.4c-7.5,0-13.3-1.8-17.4-5.3s-5.3-8.1-3.7-13.8c1.9-6.6,6.2-11.5,13.2-14.7c6.9-3.2,16.5-4.8,28.7-4.8h10.6
		l1.4-5c0.9-3.2,0.6-5.6-0.8-7.2s-4-2.4-7.8-2.4c-3.2,0-5.9,0.7-8.2,2c-2.3,1.4-3.7,3.2-4.3,5.5l-22.6-0.1l-0.2-0.4
		c1.3-5.7,5.7-10.4,13.1-14.1s16.5-5.5,27.2-5.5c9.3,0,16.7,1.9,22.1,5.8s7.2,9.3,5.3,16.3l-7.4,26.1c-0.9,3.2-1.4,6-1.5,8.5
		s0.2,5,0.8,7.6h-23.7V184.4z M423.3,173c2.8,0,5.7-0.5,8.5-1.6c2.9-1.1,5.2-2.4,7.2-4l3-10.7h-10.6c-4,0-7.5,0.9-10.3,2.7
		c-2.8,1.8-4.6,4-5.2,6.5c-0.7,2.3-0.3,4,1,5.2C418.1,172.5,420.3,173,423.3,173z"/>
	<path class="st3" d="M473.6,152.1c3-10.6,7.8-18.6,14.3-24s15-8.1,25.3-8.1c3.8,0,7.3,0.6,10.6,1.8c3.2,1.2,6,2.9,8.2,5.1l9.4-33.7
		H565l-25.5,91.1h-20.4l0.2-6.2c-3.2,2.4-6.5,4.2-10.1,5.5s-7.4,1.9-11.4,1.9c-9.5,0-16.6-3.1-21.3-9.3c-4.7-6.2-5.8-13.8-3.3-22.9
		L473.6,152.1z M496.8,153.4c-1.7,6-1.8,10.7-0.4,14c1.4,3.4,4.8,5.1,10.1,5.1c2.7,0,5.3-0.6,7.8-1.8c2.5-1.2,4.8-2.8,6.9-4.9
		l7.7-27.6c-1-1.6-2.5-2.8-4.5-3.7c-2-0.9-4.5-1.3-7.4-1.3c-4.9,0-9,1.7-12.3,5.1c-3.4,3.4-5.9,8-7.4,13.8L496.8,153.4z"/>
	<path class="st3" d="M588.3,185.6c-11.6,0-20.4-2.9-26.5-8.8c-6-5.9-8-13.3-6-22.2l0.5-2.3c2.2-9.8,7.3-17.6,15.2-23.5
		c8-5.9,17.7-8.8,29.2-8.8c10.8,0,18.9,2.6,24,7.8c5.2,5.2,6.8,12.1,4.9,20.8l-2,9.3h-48.9c-0.4,4.5,0.6,8,3,10.6
		c2.5,2.6,6.4,4,11.9,4c4.6,0,8.6-0.4,12.2-1.2c3.5-0.8,7.4-2,11.5-3.6l4,10.5c-3.8,2.1-8.5,3.8-14.3,5.2
		C601.3,185,595,185.6,588.3,185.6z M598,133.1c-3.7,0-6.9,1.2-9.7,3.7c-2.8,2.4-4.8,5.6-6.2,9.5l0.2,0.3h25l0.3-1.5
		c0.8-3.8,0.5-6.7-1-8.8C605,134.3,602.2,133.1,598,133.1z"/>
	<path class="st3" d="M685.5,136.3L676,136c-2.9,0-5.5,0.5-7.7,1.5c-2.3,1-4.2,2.4-5.8,4.2l-11.9,42.6h-23.5l17.7-63.2h21.9
		l-1.3,8.1l0.4,0.2c2.5-3,5.4-5.3,8.7-7c3.4-1.7,7-2.5,10.9-2.5c1.1,0,2.3,0.1,3.6,0.2s2.4,0.3,3.2,0.5L685.5,136.3z"/>
</g>
<g>
	<path class="st4" d="M106.3,155.9l0.2,0.4c-3.3,9.5-8.9,16.7-16.7,21.8c-7.8,5.1-18.2,7.6-31.3,7.6c-12.7,0-22.9-3.4-30.6-10.2
		c-7.7-6.8-10.2-15.2-7.3-25.3l4.7-16.9c3.1-11.2,9.1-19.8,17.9-25.9s19.8-9.2,32.9-9.2c12.9,0,22.9,2.8,30.1,8.3
		c7.1,5.5,9.9,12.9,8.2,22.1l-0.2,0.3H91.1c1.1-5.6,0.3-10-2.5-13c-2.7-3-7.7-4.5-14.8-4.5c-5.8,0-11,2-15.6,6.1s-7.7,9.3-9.4,15.7
		l-4.8,17c-2,6.8-1.5,12.3,1.4,16.3s7.8,6,14.7,6c6.1,0,11-1.3,14.7-4s6.6-6.9,8.7-12.5L106.3,155.9L106.3,155.9z"/>
	<path class="st4" d="M153.8,184.4c-0.3-1.2-0.6-2.4-0.7-3.6s-0.2-2.5-0.2-3.8c-3.2,2.6-6.8,4.7-10.9,6.2c-4,1.6-8.4,2.4-13,2.4
		c-7.5,0-13.3-1.8-17.4-5.3c-4.1-3.5-5.3-8.1-3.7-13.8c1.9-6.6,6.2-11.5,13.2-14.7c6.9-3.2,16.5-4.8,28.7-4.8h10.6l1.4-5
		c0.9-3.2,0.6-5.6-0.8-7.2c-1.4-1.6-4-2.4-7.8-2.4c-3.2,0-5.9,0.7-8.2,2c-2.3,1.4-3.7,3.2-4.3,5.5l-22.6-0.1l-0.2-0.4
		c1.3-5.7,5.7-10.4,13.1-14.1c7.4-3.7,16.5-5.5,27.2-5.5c9.3,0,16.7,1.9,22.1,5.8c5.4,3.9,7.2,9.3,5.3,16.3l-7.4,26.1
		c-0.9,3.2-1.4,6-1.5,8.5s0.2,5,0.8,7.6h-23.7V184.4z M138.9,173c2.8,0,5.7-0.5,8.5-1.6c2.9-1.1,5.2-2.4,7.2-4l3-10.7H147
		c-4,0-7.5,0.9-10.3,2.7c-2.8,1.8-4.6,4-5.2,6.5c-0.7,2.3-0.3,4,1,5.2C133.8,172.5,135.9,173,138.9,173z"/>
	<path class="st4" d="M242,136.3l-9.4-0.2c-2.9,0-5.5,0.5-7.7,1.5c-2.3,1-4.2,2.4-5.8,4.2l-11.9,42.6h-23.5l17.7-63.2h21.9l-1.3,8.1
		l0.4,0.2c2.5-3,5.4-5.3,8.7-7c3.4-1.7,7-2.5,10.9-2.5c1.1,0,2.3,0.1,3.6,0.2c1.3,0.1,2.4,0.3,3.2,0.5L242,136.3z"/>
	<path class="st0" d="M263.8,171.3h48.7l-3.7,13.1h-72.3l23.8-85h23.5L263.8,171.3z"/>
	<path class="st0" d="M351.5,185.6c-11.6,0-20.4-2.9-26.5-8.8c-6-5.9-8-13.3-6-22.2l0.5-2.3c2.2-9.8,7.3-17.6,15.2-23.5
		c8-5.9,17.7-8.8,29.2-8.8c10.8,0,18.9,2.6,24,7.8c5.2,5.2,6.8,12.1,4.9,20.8l-2,9.3h-48.9c-0.4,4.5,0.6,8,3,10.6
		c2.5,2.6,6.4,4,11.9,4c4.6,0,8.6-0.4,12.2-1.2c3.5-0.8,7.4-2,11.5-3.6l4,10.5c-3.8,2.1-8.5,3.8-14.3,5.2
		C364.4,185,358.1,185.6,351.5,185.6z M361,133.1c-3.7,0-6.9,1.2-9.7,3.7c-2.8,2.4-4.8,5.6-6.2,9.5l0.2,0.3h25l0.3-1.5
		c0.8-3.8,0.5-6.7-1-8.8C368.1,134.3,365.3,133.1,361,133.1z"/>
	<path class="st0" d="M438.1,184.4c-0.3-1.2-0.6-2.4-0.7-3.6c-0.2-1.2-0.2-2.5-0.2-3.8c-3.2,2.6-6.8,4.7-10.9,6.2
		c-4,1.6-8.4,2.4-13,2.4c-7.5,0-13.3-1.8-17.4-5.3s-5.3-8.1-3.7-13.8c1.9-6.6,6.2-11.5,13.2-14.7c6.9-3.2,16.5-4.8,28.7-4.8h10.6
		l1.4-5c0.9-3.2,0.6-5.6-0.8-7.2s-4-2.4-7.8-2.4c-3.2,0-5.9,0.7-8.2,2c-2.3,1.4-3.7,3.2-4.3,5.5l-22.6-0.1l-0.2-0.4
		c1.3-5.7,5.7-10.4,13.1-14.1s16.5-5.5,27.2-5.5c9.3,0,16.7,1.9,22.1,5.8s7.2,9.3,5.3,16.3l-7.4,26.1c-0.9,3.2-1.4,6-1.5,8.5
		s0.2,5,0.8,7.6h-23.7V184.4z M423.3,173c2.8,0,5.7-0.5,8.5-1.6c2.9-1.1,5.2-2.4,7.2-4l3-10.7h-10.6c-4,0-7.5,0.9-10.3,2.7
		c-2.8,1.8-4.6,4-5.2,6.5c-0.7,2.3-0.3,4,1,5.2C418.1,172.5,420.3,173,423.3,173z"/>
	<path class="st0" d="M473.6,152.1c3-10.6,7.8-18.6,14.3-24s15-8.1,25.3-8.1c3.8,0,7.3,0.6,10.6,1.8c3.2,1.2,6,2.9,8.2,5.1l9.4-33.7
		H565l-25.5,91.1h-20.4l0.2-6.2c-3.2,2.4-6.5,4.2-10.1,5.5s-7.4,1.9-11.4,1.9c-9.5,0-16.6-3.1-21.3-9.3c-4.7-6.2-5.8-13.8-3.3-22.9
		L473.6,152.1z M496.8,153.4c-1.7,6-1.8,10.7-0.4,14c1.4,3.4,4.8,5.1,10.1,5.1c2.7,0,5.3-0.6,7.8-1.8c2.5-1.2,4.8-2.8,6.9-4.9
		l7.7-27.6c-1-1.6-2.5-2.8-4.5-3.7c-2-0.9-4.5-1.3-7.4-1.3c-4.9,0-9,1.7-12.3,5.1c-3.4,3.4-5.9,8-7.4,13.8L496.8,153.4z"/>
	<path class="st0" d="M588.3,185.6c-11.6,0-20.4-2.9-26.5-8.8c-6-5.9-8-13.3-6-22.2l0.5-2.3c2.2-9.8,7.3-17.6,15.2-23.5
		c8-5.9,17.7-8.8,29.2-8.8c10.8,0,18.9,2.6,24,7.8c5.2,5.2,6.8,12.1,4.9,20.8l-2,9.3h-48.9c-0.4,4.5,0.6,8,3,10.6
		c2.5,2.6,6.4,4,11.9,4c4.6,0,8.6-0.4,12.2-1.2c3.5-0.8,7.4-2,11.5-3.6l4,10.5c-3.8,2.1-8.5,3.8-14.3,5.2
		C601.3,185,595,185.6,588.3,185.6z M598,133.1c-3.7,0-6.9,1.2-9.7,3.7c-2.8,2.4-4.8,5.6-6.2,9.5l0.2,0.3h25l0.3-1.5
		c0.8-3.8,0.5-6.7-1-8.8C605,134.3,602.2,133.1,598,133.1z"/>
	<path class="st0" d="M685.5,136.3L676,136c-2.9,0-5.5,0.5-7.7,1.5c-2.3,1-4.2,2.4-5.8,4.2l-11.9,42.6h-23.5l17.7-63.2h21.9
		l-1.3,8.1l0.4,0.2c2.5-3,5.4-5.3,8.7-7c3.4-1.7,7-2.5,10.9-2.5c1.1,0,2.3,0.1,3.6,0.2s2.4,0.3,3.2,0.5L685.5,136.3z"/>
</g>
</svg>
